<mxfile host="app.diagrams.net" agent="Mozilla/5.0 (Windows NT 10.0; Win64; x64) AppleWebKit/537.36 (KHTML, like Gecko) Chrome/127.0.0.0 Safari/537.36" version="24.7.7">
  <diagram name="Page-1" id="w-W4O1qsA_r7r5tHlhLZ">
    <mxGraphModel dx="1050" dy="557" grid="1" gridSize="10" guides="1" tooltips="1" connect="1" arrows="1" fold="1" page="1" pageScale="1" pageWidth="850" pageHeight="1100" math="0" shadow="0">
      <root>
        <mxCell id="0" />
        <mxCell id="1" parent="0" />
        <mxCell id="AfGFphQ3vEunqYkG3-pz-1" style="edgeStyle=orthogonalEdgeStyle;rounded=0;orthogonalLoop=1;jettySize=auto;html=1;exitX=0.5;exitY=1;exitDx=0;exitDy=0;entryX=0.5;entryY=0;entryDx=0;entryDy=0;" edge="1" parent="1" source="AfGFphQ3vEunqYkG3-pz-2" target="AfGFphQ3vEunqYkG3-pz-12">
          <mxGeometry relative="1" as="geometry">
            <mxPoint x="422.5" y="90" as="targetPoint" />
          </mxGeometry>
        </mxCell>
        <mxCell id="AfGFphQ3vEunqYkG3-pz-2" value="Mulai" style="ellipse;whiteSpace=wrap;html=1;" vertex="1" parent="1">
          <mxGeometry x="362.5" width="120" height="60" as="geometry" />
        </mxCell>
        <mxCell id="AfGFphQ3vEunqYkG3-pz-3" value="Selesai" style="ellipse;whiteSpace=wrap;html=1;" vertex="1" parent="1">
          <mxGeometry x="362.5" y="600" width="120" height="60" as="geometry" />
        </mxCell>
        <mxCell id="AfGFphQ3vEunqYkG3-pz-4" style="edgeStyle=orthogonalEdgeStyle;rounded=0;orthogonalLoop=1;jettySize=auto;html=1;exitX=0.5;exitY=1;exitDx=0;exitDy=0;" edge="1" parent="1" source="AfGFphQ3vEunqYkG3-pz-8" target="AfGFphQ3vEunqYkG3-pz-10">
          <mxGeometry relative="1" as="geometry" />
        </mxCell>
        <mxCell id="AfGFphQ3vEunqYkG3-pz-5" value="Ya" style="edgeLabel;html=1;align=center;verticalAlign=middle;resizable=0;points=[];" connectable="0" vertex="1" parent="AfGFphQ3vEunqYkG3-pz-4">
          <mxGeometry x="-0.1692" y="-3" relative="1" as="geometry">
            <mxPoint as="offset" />
          </mxGeometry>
        </mxCell>
        <mxCell id="AfGFphQ3vEunqYkG3-pz-6" style="edgeStyle=orthogonalEdgeStyle;rounded=0;orthogonalLoop=1;jettySize=auto;html=1;exitX=0;exitY=0.5;exitDx=0;exitDy=0;entryX=0;entryY=0.5;entryDx=0;entryDy=0;" edge="1" parent="1" source="AfGFphQ3vEunqYkG3-pz-8" target="AfGFphQ3vEunqYkG3-pz-12">
          <mxGeometry relative="1" as="geometry">
            <Array as="points">
              <mxPoint x="220" y="340" />
              <mxPoint x="220" y="140" />
            </Array>
          </mxGeometry>
        </mxCell>
        <mxCell id="AfGFphQ3vEunqYkG3-pz-7" value="Tidak" style="edgeLabel;html=1;align=center;verticalAlign=middle;resizable=0;points=[];" vertex="1" connectable="0" parent="AfGFphQ3vEunqYkG3-pz-6">
          <mxGeometry x="0.0556" y="2" relative="1" as="geometry">
            <mxPoint as="offset" />
          </mxGeometry>
        </mxCell>
        <mxCell id="AfGFphQ3vEunqYkG3-pz-8" value="Ubah status&amp;nbsp;&lt;div&gt;transaksi?&lt;/div&gt;" style="rhombus;whiteSpace=wrap;html=1;" vertex="1" parent="1">
          <mxGeometry x="360" y="290" width="125" height="100" as="geometry" />
        </mxCell>
        <mxCell id="AfGFphQ3vEunqYkG3-pz-9" style="edgeStyle=orthogonalEdgeStyle;rounded=0;orthogonalLoop=1;jettySize=auto;html=1;exitX=0.5;exitY=1;exitDx=0;exitDy=0;" edge="1" parent="1" source="AfGFphQ3vEunqYkG3-pz-10" target="AfGFphQ3vEunqYkG3-pz-3">
          <mxGeometry relative="1" as="geometry" />
        </mxCell>
        <mxCell id="AfGFphQ3vEunqYkG3-pz-10" value="Update status transaksi" style="rounded=0;whiteSpace=wrap;html=1;" vertex="1" parent="1">
          <mxGeometry x="362.5" y="480" width="120" height="60" as="geometry" />
        </mxCell>
        <mxCell id="AfGFphQ3vEunqYkG3-pz-11" style="edgeStyle=orthogonalEdgeStyle;rounded=0;orthogonalLoop=1;jettySize=auto;html=1;exitX=0.5;exitY=1;exitDx=0;exitDy=0;entryX=0.5;entryY=0;entryDx=0;entryDy=0;" edge="1" parent="1" source="AfGFphQ3vEunqYkG3-pz-12" target="AfGFphQ3vEunqYkG3-pz-8">
          <mxGeometry relative="1" as="geometry" />
        </mxCell>
        <mxCell id="AfGFphQ3vEunqYkG3-pz-12" value="Tampilkan&amp;nbsp;&lt;div&gt;Detail Transaksi&lt;/div&gt;" style="rounded=0;whiteSpace=wrap;html=1;" vertex="1" parent="1">
          <mxGeometry x="362.5" y="110" width="120" height="60" as="geometry" />
        </mxCell>
      </root>
    </mxGraphModel>
  </diagram>
</mxfile>
